<svg xmlns="http://www.w3.org/2000/svg" viewBox="1075 25 470 385"><circle fill="#7247b5" cx="1096" cy="36.9" r="4.7"/><circle fill="#7247b5" cx="1114.7" cy="36.9" r="4.7"/><circle fill="#7247b5" cx="1133.4" cy="36.9" r="4.7"/><circle fill="#7247b5" cx="1152.2" cy="36.9" r="4.7"/><circle fill="#7247b5" cx="1170.9" cy="36.9" r="4.7"/><circle fill="#7247b5" cx="1189.6" cy="36.9" r="4.7"/><circle fill="#7247b5" cx="1208.4" cy="36.9" r="4.7"/><circle fill="#7247b5" cx="1110.9" cy="54.8" r="4.7"/><circle fill="#7247b5" cx="1129.7" cy="54.8" r="4.7"/><circle fill="#7247b5" cx="1148.4" cy="54.8" r="4.7"/><circle fill="#7247b5" cx="1167.1" cy="54.8" r="4.7"/><circle fill="#7247b5" cx="1185.9" cy="54.8" r="4.7"/><circle fill="#7247b5" cx="1204.6" cy="54.8" r="4.7"/><circle fill="#7247b5" cx="1223.3" cy="54.8" r="4.7"/><circle fill="#7247b5" cx="1125.9" cy="72.7" r="4.7"/><circle fill="#7247b5" cx="1144.6" cy="72.7" r="4.7"/><circle fill="#7247b5" cx="1163.4" cy="72.7" r="4.7"/><circle fill="#7247b5" cx="1182.1" cy="72.7" r="4.7"/><circle fill="#7247b5" cx="1200.8" cy="72.7" r="4.7"/><circle fill="#7247b5" cx="1219.6" cy="72.7" r="4.7"/><circle fill="#7247b5" cx="1238.3" cy="72.7" r="4.7"/><circle fill="#7247b5" cx="1140.9" cy="90.6" r="4.7"/><circle fill="#7247b5" cx="1159.6" cy="90.6" r="4.7"/><circle fill="#7247b5" cx="1178.3" cy="90.6" r="4.7"/><circle fill="#7247b5" cx="1197.1" cy="90.6" r="4.7"/><circle fill="#7247b5" cx="1215.8" cy="90.6" r="4.7"/><circle fill="#7247b5" cx="1234.5" cy="90.6" r="4.7"/><circle fill="#7247b5" cx="1253.2" cy="90.6" r="4.7"/><circle fill="#7247b5" cx="1155.8" cy="108.5" r="4.7"/><circle fill="#7247b5" cx="1174.6" cy="108.5" r="4.7"/><circle fill="#7247b5" cx="1193.3" cy="108.5" r="4.7"/><circle fill="#7247b5" cx="1212" cy="108.5" r="4.7"/><circle fill="#7247b5" cx="1230.7" cy="108.5" r="4.7"/><circle fill="#7247b5" cx="1249.5" cy="108.5" r="4.7"/><circle fill="#7247b5" cx="1268.2" cy="108.5" r="4.7"/><circle fill="#7247b5" cx="1170.8" cy="126.3" r="4.7"/><circle fill="#7247b5" cx="1189.5" cy="126.3" r="4.7"/><circle fill="#7247b5" cx="1208.2" cy="126.3" r="4.7"/><circle fill="#7247b5" cx="1227" cy="126.3" r="4.7"/><circle fill="#7247b5" cx="1245.7" cy="126.3" r="4.7"/><circle fill="#7247b5" cx="1264.4" cy="126.3" r="4.7"/><circle fill="#7247b5" cx="1283.2" cy="126.3" r="4.7"/><circle fill="#7247b5" cx="1185.7" cy="144.2" r="4.7"/><circle fill="#7247b5" cx="1204.5" cy="144.2" r="4.7"/><circle fill="#7247b5" cx="1223.2" cy="144.2" r="4.7"/><circle fill="#7247b5" cx="1241.9" cy="144.2" r="4.7"/><circle fill="#7247b5" cx="1260.7" cy="144.2" r="4.7"/><circle fill="#7247b5" cx="1279.4" cy="144.2" r="4.7"/><circle fill="#7247b5" cx="1298.1" cy="144.2" r="4.7"/><circle fill="#7247b5" cx="1200.7" cy="162.1" r="4.7"/><circle fill="#7247b5" cx="1219.4" cy="162.1" r="4.7"/><circle fill="#7247b5" cx="1238.2" cy="162.1" r="4.7"/><circle fill="#7247b5" cx="1256.9" cy="162.1" r="4.7"/><circle fill="#7247b5" cx="1275.6" cy="162.1" r="4.7"/><circle fill="#7247b5" cx="1294.3" cy="162.1" r="4.7"/><circle fill="#7247b5" cx="1313.1" cy="162.1" r="4.7"/><circle fill="#7247b5" cx="1215.7" cy="180" r="4.7"/><circle fill="#7247b5" cx="1234.4" cy="180" r="4.7"/><circle fill="#7247b5" cx="1253.1" cy="180" r="4.7"/><circle fill="#7247b5" cx="1271.8" cy="180" r="4.7"/><circle fill="#7247b5" cx="1290.6" cy="180" r="4.7"/><circle fill="#7247b5" cx="1309.3" cy="180" r="4.7"/><circle fill="#7247b5" cx="1328" cy="180" r="4.7"/><circle fill="#7247b5" cx="1230.6" cy="197.9" r="4.7"/><circle fill="#7247b5" cx="1249.3" cy="197.9" r="4.7"/><circle fill="#7247b5" cx="1268.1" cy="197.9" r="4.7"/><circle fill="#7247b5" cx="1286.8" cy="197.9" r="4.7"/><circle fill="#7247b5" cx="1305.5" cy="197.9" r="4.7"/><circle fill="#7247b5" cx="1324.3" cy="197.9" r="4.7"/><circle fill="#7247b5" cx="1343" cy="197.9" r="4.7"/><circle fill="#7247b5" cx="1245.6" cy="215.8" r="4.7"/><circle fill="#7247b5" cx="1264.3" cy="215.8" r="4.7"/><circle fill="#7247b5" cx="1283" cy="215.8" r="4.7"/><circle fill="#7247b5" cx="1301.8" cy="215.8" r="4.7"/><circle fill="#7247b5" cx="1320.5" cy="215.8" r="4.7"/><circle fill="#7247b5" cx="1339.2" cy="215.8" r="4.7"/><circle fill="#7247b5" cx="1358" cy="215.8" r="4.7"/><circle fill="#7247b5" cx="1343" cy="233.7" r="4.7"/><circle fill="#7247b5" cx="1324.3" cy="233.7" r="4.7"/><circle fill="#7247b5" cx="1305.5" cy="233.7" r="4.7"/><circle fill="#7247b5" cx="1286.8" cy="233.7" r="4.7"/><circle fill="#7247b5" cx="1268.1" cy="233.7" r="4.7"/><circle fill="#7247b5" cx="1249.3" cy="233.7" r="4.7"/><circle fill="#7247b5" cx="1230.6" cy="233.7" r="4.7"/><circle fill="#7247b5" cx="1328" cy="251.6" r="4.7"/><circle fill="#7247b5" cx="1309.3" cy="251.6" r="4.7"/><circle fill="#7247b5" cx="1290.6" cy="251.6" r="4.7"/><circle fill="#7247b5" cx="1271.8" cy="251.6" r="4.7"/><circle fill="#7247b5" cx="1253.1" cy="251.6" r="4.7"/><circle fill="#7247b5" cx="1234.4" cy="251.6" r="4.7"/><circle fill="#7247b5" cx="1215.7" cy="251.6" r="4.7"/><circle fill="#7247b5" cx="1313.1" cy="269.4" r="4.7"/><circle fill="#7247b5" cx="1294.3" cy="269.4" r="4.7"/><circle fill="#7247b5" cx="1275.6" cy="269.4" r="4.7"/><circle fill="#7247b5" cx="1256.9" cy="269.4" r="4.7"/><circle fill="#7247b5" cx="1238.2" cy="269.4" r="4.7"/><circle fill="#7247b5" cx="1219.4" cy="269.4" r="4.7"/><circle fill="#7247b5" cx="1200.7" cy="269.4" r="4.7"/><circle fill="#7247b5" cx="1298.1" cy="287.3" r="4.7"/><circle fill="#7247b5" cx="1279.4" cy="287.3" r="4.7"/><circle fill="#7247b5" cx="1260.7" cy="287.3" r="4.7"/><circle fill="#7247b5" cx="1241.9" cy="287.3" r="4.7"/><circle fill="#7247b5" cx="1223.2" cy="287.3" r="4.7"/><circle fill="#7247b5" cx="1204.5" cy="287.3" r="4.7"/><circle fill="#7247b5" cx="1185.7" cy="287.3" r="4.7"/><circle fill="#7247b5" cx="1283.2" cy="305.2" r="4.7"/><circle fill="#7247b5" cx="1264.4" cy="305.2" r="4.7"/><circle fill="#7247b5" cx="1245.7" cy="305.2" r="4.7"/><circle fill="#7247b5" cx="1227" cy="305.2" r="4.7"/><circle fill="#7247b5" cx="1208.2" cy="305.2" r="4.7"/><circle fill="#7247b5" cx="1189.5" cy="305.2" r="4.7"/><circle fill="#7247b5" cx="1170.8" cy="305.2" r="4.7"/><circle fill="#7247b5" cx="1268.2" cy="323.1" r="4.7"/><circle fill="#7247b5" cx="1249.5" cy="323.1" r="4.7"/><circle fill="#7247b5" cx="1230.7" cy="323.1" r="4.7"/><circle fill="#7247b5" cx="1212" cy="323.1" r="4.7"/><circle fill="#7247b5" cx="1193.3" cy="323.1" r="4.7"/><circle fill="#7247b5" cx="1174.6" cy="323.1" r="4.7"/><circle fill="#7247b5" cx="1155.8" cy="323.1" r="4.7"/><circle fill="#7247b5" cx="1253.2" cy="341" r="4.7"/><circle fill="#7247b5" cx="1234.5" cy="341" r="4.7"/><circle fill="#7247b5" cx="1215.8" cy="341" r="4.7"/><circle fill="#7247b5" cx="1197.1" cy="341" r="4.7"/><circle fill="#7247b5" cx="1178.3" cy="341" r="4.7"/><circle fill="#7247b5" cx="1159.6" cy="341" r="4.7"/><circle fill="#7247b5" cx="1140.9" cy="341" r="4.7"/><circle fill="#7247b5" cx="1238.3" cy="358.9" r="4.7"/><circle fill="#7247b5" cx="1219.6" cy="358.9" r="4.7"/><circle fill="#7247b5" cx="1200.8" cy="358.9" r="4.7"/><circle fill="#7247b5" cx="1182.1" cy="358.9" r="4.7"/><circle fill="#7247b5" cx="1163.4" cy="358.9" r="4.7"/><circle fill="#7247b5" cx="1144.6" cy="358.9" r="4.7"/><circle fill="#7247b5" cx="1125.9" cy="358.9" r="4.7"/><circle fill="#7247b5" cx="1223.3" cy="376.8" r="4.7"/><circle fill="#7247b5" cx="1204.6" cy="376.8" r="4.7"/><circle fill="#7247b5" cx="1185.9" cy="376.8" r="4.7"/><circle fill="#7247b5" cx="1167.1" cy="376.8" r="4.7"/><circle fill="#7247b5" cx="1148.4" cy="376.8" r="4.7"/><circle fill="#7247b5" cx="1129.7" cy="376.8" r="4.7"/><circle fill="#7247b5" cx="1110.9" cy="376.8" r="4.7"/><circle fill="#7247b5" cx="1208.4" cy="394.6" r="4.7"/><circle fill="#7247b5" cx="1189.6" cy="394.6" r="4.7"/><circle fill="#7247b5" cx="1170.9" cy="394.6" r="4.7"/><circle fill="#7247b5" cx="1152.2" cy="394.6" r="4.7"/><circle fill="#7247b5" cx="1133.4" cy="394.6" r="4.7"/><circle fill="#7247b5" cx="1114.7" cy="394.6" r="4.7"/><circle fill="#7247b5" cx="1096" cy="394.6" r="4.7"/><path fill="#7247b5" d="M1510.9,399.4h-107.5c-2.3,0-4.4-1-5.9-2.7l-77.1-89.1c-2.6-3-2.6-7.3,0-10.3l53.8-62.1c3.1-3.6,8.8-3.6,11.9,0l130.8,151.2c4.4,5.1.8,13-5.9,13h0Z"/><path fill="#7247b5" d="M1516.8,45.2l-130.8,151.2c-3.1,3.6-8.8,3.6-11.9,0l-53.8-62.1c-2.6-2.9-2.6-7.3,0-10.3l77.1-89.1c1.5-1.7,3.7-2.7,5.9-2.7h107.5c6.7,0,10.3,7.9,5.9,13h0Z"/></svg>